<svg width="30" height="30" viewBox="0 0 30 30" fill="none" xmlns="http://www.w3.org/2000/svg">
<path d="M14.976 23.552C14.144 23.552 13.472 22.88 13.472 22.048C13.472 21.248 14.144 20.544 14.976 20.544C15.776 20.544 16.48 21.248 16.48 22.048C16.48 22.88 15.776 23.552 14.976 23.552ZM14.976 9.408C15.776 9.408 16.48 8.736 16.48 7.904C16.48 7.104 15.776 6.4 14.976 6.4C14.144 6.4 13.472 7.104 13.472 7.904C13.472 8.736 14.144 9.408 14.976 9.408ZM14.976 29.952C6.72 29.952 0 23.232 0 14.976C0 6.72 6.72 0 14.976 0C23.264 0 29.952 6.72 29.952 14.976C29.952 23.232 23.264 29.952 14.976 29.952ZM7.904 22.048C7.904 25.952 11.072 29.12 14.976 29.12C22.784 29.12 29.12 22.784 29.12 14.976C29.12 7.168 22.784 0.832001 15.072 0.832001C18.912 0.864 22.048 4.032 22.048 7.904C22.048 11.808 18.88 14.976 14.976 14.976C11.072 14.976 7.904 18.144 7.904 22.048Z" fill="#F0EAF8"/>
</svg>
