<svg width="10" height="10" viewBox="0 0 10 10" fill="none" xmlns="http://www.w3.org/2000/svg">
<path d="M9.21 5.14L8.22 5.01C8.13 4.99 8.11 4.96 8.11 4.87V4.48C8.11 4.39 8.13 4.36 8.22 4.35L9.21 4.22C9.29 4.21 9.36 4.27 9.36 4.36V5C9.36 5.08 9.29 5.15 9.21 5.14ZM4.23 9.21L4.35 8.23C4.38 8.14 4.41 8.12 4.49 8.12H4.88C4.97 8.12 5.01 8.14 5.02 8.23L5.14 9.21C5.15 9.29 5.09 9.37 5.01 9.37H4.37C4.28 9.37 4.22 9.29 4.23 9.21ZM0.15 4.23L1.13 4.37C1.23 4.38 1.25 4.41 1.25 4.5V4.88C1.25 4.98 1.23 5.01 1.13 5.02L0.15 5.15C0.07 5.17 0 5.1 0 5.02V4.37C0 4.29 0.07 4.22 0.15 4.23ZM5.13 0.16L5 1.15C4.98 1.23 4.95 1.25 4.87 1.25H4.48C4.39 1.25 4.35 1.23 4.34 1.15L4.22 0.16C4.2 0.0700003 4.26 0 4.34 0H5C5.08 0 5.14 0.0700003 5.13 0.16ZM7.54 4.68C7.54 6.26 6.26 7.54 4.68 7.54C3.1 7.54 1.82 6.26 1.82 4.68C1.82 3.1 3.1 1.82 4.68 1.82C6.26 1.82 7.54 3.1 7.54 4.68ZM8.2 1.8L7.41 2.41C7.34 2.46 7.3 2.45 7.24 2.39L6.97 2.12C6.9 2.05 6.89 2.01 6.94 1.94L7.55 1.16C7.61 1.09 7.7 1.08 7.76 1.14L8.21 1.6C8.27 1.65 8.27 1.75 8.2 1.8ZM7.56 8.2L6.96 7.42C6.91 7.34 6.91 7.3 6.97 7.25L7.25 6.97C7.32 6.9 7.35 6.9 7.43 6.96L8.21 7.56C8.27 7.61 8.28 7.71 8.22 7.77L7.77 8.22C7.71 8.28 7.61 8.27 7.56 8.2ZM1.16 7.56L1.95 6.97C2.02 6.91 2.06 6.92 2.12 6.98L2.39 7.25C2.46 7.32 2.47 7.36 2.41 7.43L1.81 8.21C1.76 8.29 1.67 8.29 1.61 8.23L1.15 7.77C1.09 7.71 1.09 7.62 1.16 7.56ZM1.8 1.16L2.4 1.96C2.45 2.03 2.45 2.06 2.39 2.12L2.11 2.4C2.04 2.46 2.01 2.47 1.94 2.42L1.15 1.81C1.08 1.77 1.07 1.67 1.13 1.61L1.59 1.15C1.65 1.09 1.75 1.1 1.8 1.16Z" fill="#7EB8F7"/>
</svg>
